<svg id="Capa_1" enable-background="new 0 0 512.036 512.036" height="512" viewBox="0 0 512.036 512.036" width="512" xmlns="http://www.w3.org/2000/svg"><g><path d="m123.476 462.518c-26.17 0-47.386-21.215-47.386-47.385v-103.589h94.771v103.589c.001 26.17-21.214 47.385-47.385 47.385z" fill="#6ad7d4"/><path d="m299.94 498.379c-28.354 0-51.339-22.985-51.339-51.339v-135.496h102.678v135.496c0 28.354-22.985 51.339-51.339 51.339z" fill="#6ad7d4"/><ellipse cx="256.021" cy="144.628" fill="#efedff" rx="160.036" ry="130.971"/><path d="m209.708 19.234c-65.801 16.256-113.723 66.241-113.723 125.394 0 70.298 67.676 127.653 152.616 130.826v-97.878c-77.377-3.865-79.976-121.127-38.893-158.342z" fill="#d4d4ff"/><g><g fill="#eda1ab"><ellipse cx="176.464" cy="109.467" rx="29.355" ry="23.377"/><ellipse cx="335.577" cy="109.467" rx="29.355" ry="23.377"/></g></g><path d="m76.091 405.478c13.303 2.082 27.341.612 40.683-5.069 17.439-7.427 34.787-13.744 54.088-18.472v-70.393h-94.771z" fill="#5abfd6"/><path d="m248.601 372.693c2.441-.037 4.904-.062 7.42-.062 17.4 0 33.432.901 48.637 2.746v36.023c0 27.962 14.101 52.684 35.557 67.458 6.922-8.749 11.065-19.796 11.065-31.818v-135.496h-102.679z" fill="#5abfd6"/><path d="m464.662 193.629c-54.892-21.849-118.465-38.696-208.641-38.696s-153.75 16.847-208.641 38.696c-33.828 13.465-49.322 52.642-33.843 85.596l33.618 71.574c10.207 21.73 35.775 31.414 57.863 22.008 40.999-17.46 84.195-30.176 151.002-30.176 24.939 0 46.58 1.776 66.05 4.907 7.248 1.165 12.587 7.399 12.587 14.74v49.122c0 28.642 23.219 51.861 51.861 51.861 28.642 0 51.861-23.219 51.861-51.861v-27.157c0-5.696 3.182-10.832 8.142-13.632 7.77-4.387 14.29-11.14 18.364-19.813l33.618-71.574c15.481-32.953-.013-72.13-33.841-85.595z" fill="#8ee2e1"/><path d="m137.602 300.521c-6.826 2.528-16.565 6.116-23.001 8.454l-28.736-78.953c-1.417-3.892-5.72-5.898-9.613-4.482-3.892 1.417-5.899 5.721-4.483 9.613l31.275 85.928c1.245 3.419 4.773 5.466 8.383 4.814.778-.141 1.66-.3 31.384-11.308 3.884-1.438 5.867-5.754 4.429-9.638-1.439-3.883-5.753-5.869-9.638-4.428zm118.419-207.361c-12.642 0-24.542 6.683-32.648 18.335-2.365 3.4-1.527 8.074 1.874 10.44 3.4 2.366 8.075 1.527 10.44-1.873 5.262-7.563 12.674-11.901 20.335-11.901s15.072 4.338 20.335 11.901c2.354 3.384 7.024 4.251 10.439 1.873 3.4-2.365 4.239-7.039 1.873-10.44-8.107-11.652-20.007-18.335-32.648-18.335zm-58.136 98.613c-29.367 0-53.259 23.893-53.259 53.26s23.892 53.26 53.259 53.26c29.368 0 53.26-23.893 53.26-53.26-.001-29.368-23.893-53.26-53.26-53.26zm0 91.519c-21.096 0-38.259-17.163-38.259-38.26s17.163-38.26 38.259-38.26c21.097 0 38.26 17.163 38.26 38.26-.001 21.097-17.164 38.26-38.26 38.26zm4.893-207.257c-2.875 3.299-7.024 5.19-11.385 5.19-4.36 0-8.51-1.892-11.384-5.19-2.722-3.122-7.459-3.447-10.582-.727-3.123 2.722-3.448 7.459-.727 10.582 5.724 6.568 13.996 10.335 22.693 10.335 8.698 0 16.969-3.767 22.693-10.335 2.721-3.123 2.396-7.86-.727-10.582-3.122-2.72-7.86-2.396-10.581.727zm233.012 150.825-35.906-13.068c-3.895-1.415-8.197.592-9.613 4.482l-31.016 85.215c-1.416 3.889.591 8.196 4.482 9.613l35.906 13.068c3.934 1.429 8.211-.629 9.613-4.482 1.417-3.893-.591-8.196-4.482-9.613l-28.858-10.503 10.377-28.512 26.211 9.539c3.934 1.429 8.211-.629 9.613-4.482 1.417-3.893-.591-8.196-4.482-9.613l-26.211-9.54 10.377-28.512 28.858 10.504c3.893 1.413 8.196-.592 9.613-4.482 1.418-3.894-.59-8.197-4.482-9.614zm-132.127-19.529c15.371-3.204 27.896 8.801 28.143 9.038 2.927 2.908 7.659 2.906 10.584-.014 2.932-2.927 2.936-7.675.009-10.607-.735-.736-18.289-17.998-41.794-13.104-24.367 5.076-30.606 33.271-13.46 46.716 2.335 1.83 21.787 11.494 27.011 13.958 10.072 4.75 14.808 11.328 12.991 18.049-1.754 6.489-9.702 12.848-20.979 11.87-10.151-.888-19.597-5.881-25.269-13.356-2.501-3.299-7.207-3.945-10.508-1.441-3.3 2.504-3.945 7.208-1.441 10.508 9.322 12.286 25.164 19.381 39.315 19.381 15.69-.001 29.696-9.48 33.363-23.049 4.523-16.736-7.921-29.326-21.073-35.528-11.461-5.405-22.021-11.139-24.563-12.532-6.476-5.593-4.125-17.432 7.671-19.889zm28.37-131.296c-2.874 3.299-7.023 5.19-11.384 5.19s-8.511-1.892-11.385-5.19c-2.723-3.122-7.458-3.447-10.582-.727-3.122 2.721-3.448 7.459-.727 10.582 5.724 6.567 13.995 10.335 22.693 10.335 8.697 0 16.969-3.768 22.692-10.335 2.722-3.123 2.396-7.861-.727-10.582-3.123-2.72-7.86-2.396-10.58.727zm135.403 110.626c-13.698-5.453-29.162-11.143-46.753-16.447 5.665-25.082 3.095-51.713-8.876-76.671-1.792-3.734-6.27-5.307-10.007-3.519-3.734 1.792-5.31 6.271-3.519 10.007 10.227 21.319 12.698 44.249 7.961 66.056-92-24.787-207.055-25.156-300.419-.006-16.722-76.812 57.05-144.924 150.198-144.924 48.41 0 94.442 18.931 123.134 50.64 2.78 3.072 7.523 3.309 10.594.529 3.071-2.779 3.309-7.522.529-10.594-30.035-33.192-78.51-55.575-134.257-55.575-44.474 0-86.349 14.226-117.912 40.057-41.555 34.007-56.523 80.733-46.744 124-17.593 5.305-33.058 10.995-46.758 16.448-37.815 15.05-55.226 58.777-37.858 95.753l33.619 71.573c5.927 12.617 16.207 21.75 28.224 26.418v34.727c0 30.264 24.622 54.886 54.886 54.886 9.448 0 18.769-2.443 26.954-7.065 3.606-2.036 4.879-6.611 2.843-10.218-2.037-3.607-6.611-4.879-10.219-2.843-5.939 3.353-12.709 5.126-19.578 5.126-21.993 0-39.886-17.893-39.886-39.886v-31.343c8.061.591 16.391-.685 24.367-4.082 16.436-7 34.301-13.756 55.404-19.043v54.468c0 3.975-.581 7.896-1.727 11.653-1.208 3.962 1.024 8.153 4.986 9.361 3.972 1.213 8.157-1.036 9.361-4.986 1.579-5.177 2.379-10.569 2.379-16.028v-57.851c18.225-3.654 38.83-6.167 62.74-6.912v96.671c0 32.444 26.395 58.839 58.838 58.839 27.058 0 49.889-18.159 56.729-43.201 8.777 5.129 18.973 8.084 29.851 8.084 32.732 0 59.361-26.63 59.361-59.361v-27.156c0-2.873 1.659-5.594 4.329-7.102 9.427-5.323 16.85-13.329 21.465-23.155l33.618-71.573c17.305-36.842.098-80.649-37.857-95.755zm-167.496 304.218c-24.173 0-43.838-19.666-43.838-43.839v-96.909c23.474.004 44.665 1.577 64.779 4.812 3.638.584 6.277 3.669 6.277 7.334v49.123c0 15.792 6.211 30.152 16.303 40.798-2.552 21.93-21.086 38.681-43.521 38.681zm191.777-214.842-33.618 71.573c-3.285 6.991-8.563 12.687-15.264 16.471-7.374 4.163-11.954 11.89-11.954 20.163v27.156c0 24.461-19.9 44.361-44.362 44.361-24.461 0-44.361-19.9-44.361-44.361v-49.123c0-11.071-7.947-20.385-18.897-22.145-20.932-3.365-42.927-5.002-67.24-5.002-59.766 0-104.042 9.525-153.94 30.775-18.479 7.872-39.622-.168-48.137-18.296l-33.619-71.573c-13.633-29.026-.077-63.537 29.828-75.439 44.642-17.77 108.384-38.165 205.868-38.165 51.207 0 120.883 4.338 205.868 38.165v-.001c29.795 11.862 43.509 46.309 29.828 75.441z"/></g></svg>