<svg id="Capa_1" enable-background="new 0 0 511.988 511.988" height="512" viewBox="0 0 511.988 511.988" width="512" xmlns="http://www.w3.org/2000/svg"><g><path d="m121.447 249.788c-18.437-1.061-45.022-10.613-66.974-50.1-13.187-23.721-19.88-49.697-21.602-64.733-1.634-14.249 8.594-27.125 22.844-28.759 14.237-1.643 27.126 8.594 28.76 22.844 2.963 25.86 22.453 67.885 39.955 68.892 14.32.824 25.261 13.1 24.437 27.42-.828 14.369-13.158 25.262-27.42 24.436z" fill="#ebca5f"/><path d="m124.43 197.932c-16.301-.937-34.323-37.453-39.115-63.354-13.274 22.669-21.802 48.434-24.224 75.928 20.499 30.46 43.737 38.326 60.356 39.283 14.262.826 26.592-10.067 27.42-24.437.824-14.32-10.117-26.597-24.437-27.42z" fill="#ee8c49"/><path d="m382.053 249.831c-14.332 0-25.957-11.612-25.97-25.947-.013-14.343 11.604-25.981 25.947-25.994 3.894-.003 11.136-3.533 19.789-13.427 8.757-10.013 16.714-24.247 21.284-38.078 4.5-13.618 19.188-21.015 32.808-16.51 13.618 4.5 21.01 19.189 16.51 32.809-13.862 41.946-48.046 87.109-90.344 87.147-.007 0-.016 0-.024 0z" fill="#ebca5f"/><path d="m415.229 164.653c-3.928 7.377-8.544 14.245-13.41 19.809-8.652 9.894-15.895 13.424-19.789 13.427-14.344.013-25.961 11.651-25.947 25.994.013 14.336 11.638 25.947 25.97 25.947h.024c16.006-.015 30.848-6.494 43.869-16.812.072-2.105.122-4.215.122-6.337.001-21.765-3.83-42.65-10.839-62.028z" fill="#ee8c49"/><circle cx="243.218" cy="226.682" fill="#f5ea72" r="152.851"/><g><g><path d="m190.955 179.032c.007 13.438-13.667 24.338-30.541 24.346s-30.559-10.878-30.566-24.316 13.667-24.338 30.541-24.347c16.875-.007 30.56 10.879 30.566 24.317z" fill="#eda1ab"/><path d="m295.458 178.98c.007 13.438 13.691 24.324 30.566 24.315 16.874-.008 30.548-10.908 30.541-24.346s-13.691-24.325-30.565-24.316c-16.875.008-30.549 10.909-30.542 24.347z" fill="#eda1ab"/><path d="m273.15 167.991c-.009-18.509-13.419-20.242-29.959-20.233-16.54.008-29.949 1.754-29.939 20.263.009 18.509 13.426 33.506 29.966 33.498s29.942-15.019 29.932-33.528z" fill="#565e75"/></g></g><path d="m268.078 251.287c-23.769-17.449-53.87-23.708-84.295-7.332-15.811-19.209-42.832-23.358-63.316-11.216-9.367-11.309-23.524-18.333-39.061-17.992-27.044.586-48.834 22.916-48.264 50.365 1.071 51.03 1.668 80.246 2.01 97.011.511 25.056.561 27.46 1.622 31.56 8.187 37.41 52.62 53.112 82.562 30.032 19.146 30.624 64.05 32.523 85.665 3.513 4.815 22.196 24.6 38.877 48.216 38.877 17.902 0 33.605-9.584 42.255-23.889 24.987 17.761 60.663 8.755 73.644-20.061 16.26 14.956 34.924 13.742 34.82 13.722 31.279-.004 55.501-28.296 49.739-60.896l-21.029-112.879c-5.008-26.876-30.909-44.475-57.55-39.471-16.61 3.096-29.733 14.223-36.1 28.619l-.335-.339c-9.356-9.478-21.795-14.698-35.024-14.698-13.484.001-26.247 5.461-35.559 15.074z" fill="#a78cd6"/><path d="m218.543 485.918-5.905 11.327c-5.036 9.66-18.859 9.66-23.896 0l-5.905-11.327c-1.276-2.447-3.272-4.443-5.719-5.719l-11.327-5.905c-9.66-5.036-9.66-18.86 0-23.896l11.327-5.905c2.447-1.276 4.443-3.272 5.719-5.719l5.905-11.327c5.036-9.66 18.859-9.66 23.896 0l5.905 11.327c1.276 2.447 3.272 4.443 5.719 5.719l11.327 5.905c9.66 5.036 9.66 18.86 0 23.896l-11.327 5.905c-2.447 1.276-4.444 3.273-5.719 5.719z" fill="#8ee2e1"/><path d="m182.003 440.146c-1.245 1.82-2.915 3.32-4.885 4.348l-11.327 5.905c-9.66 5.036-9.66 18.86 0 23.896l11.327 5.905c2.447 1.276 4.443 3.272 5.719 5.719l5.905 11.327c5.036 9.66 18.859 9.66 23.896 0l5.905-11.327c.641-1.229 1.463-2.343 2.433-3.311-27.167-4.607-37.262-25.611-38.973-42.462z" fill="#6ad7d4"/><path d="m455.011 123.663-5.905 11.327c-5.036 9.66-18.859 9.66-23.896 0l-5.905-11.327c-1.276-2.447-3.272-4.443-5.719-5.719l-11.327-5.905c-9.66-5.036-9.66-18.86 0-23.896l11.327-5.905c2.447-1.276 4.443-3.272 5.719-5.719l5.905-11.327c5.036-9.66 18.859-9.66 23.896 0l5.905 11.327c1.276 2.447 3.272 4.443 5.719 5.719l11.327 5.905c9.66 5.036 9.66 18.86 0 23.896l-11.327 5.905c-2.447 1.276-4.444 3.272-5.719 5.719z" fill="#8ee2e1"/><path d="m418.471 77.89c-1.245 1.82-2.915 3.32-4.885 4.348l-11.327 5.905c-9.66 5.036-9.66 18.86 0 23.896l11.327 5.905c2.447 1.276 4.443 3.272 5.719 5.719l5.905 11.327c5.036 9.66 18.859 9.66 23.896 0l5.905-11.327c.641-1.229 1.463-2.343 2.433-3.311-27.167-4.606-37.262-25.61-38.973-42.462z" fill="#6ad7d4"/><path d="m130.218 66.046-5.262 10.092c-4.488 8.608-16.805 8.608-21.292 0l-5.262-10.092c-1.137-2.18-2.915-3.959-5.096-5.096l-10.093-5.262c-8.608-4.488-8.608-16.805 0-21.292l10.093-5.262c2.18-1.137 3.959-2.915 5.096-5.096l5.262-10.093c4.488-8.608 16.805-8.608 21.292 0l5.262 10.093c1.137 2.18 2.915 3.959 5.096 5.096l10.092 5.262c8.608 4.488 8.608 16.805 0 21.292l-10.092 5.262c-2.181 1.137-3.96 2.916-5.096 5.096z" fill="#8ee2e1"/><path d="m97.659 25.26c-1.109 1.622-2.598 2.959-4.353 3.874l-10.093 5.262c-8.607 4.488-8.607 16.805 0 21.292l10.093 5.262c2.18 1.137 3.959 2.915 5.096 5.096l5.262 10.093c4.488 8.608 16.805 8.608 21.292 0l5.262-10.093c.571-1.095 1.304-2.088 2.168-2.95-24.207-4.104-33.202-22.821-34.727-37.836z" fill="#6ad7d4"/><path d="m79.746 62.339 10.093 5.262c.822.429 1.483 1.09 1.912 1.912l5.262 10.094c7.284 13.969 27.308 13.974 34.594-.001l5.262-10.093c.429-.822 1.09-1.483 1.912-1.912l10.093-5.262c13.969-7.283 13.976-27.306.001-34.593l-10.094-5.263c-.822-.429-1.483-1.09-1.912-1.913l-5.262-10.092c-7.282-13.968-27.308-13.975-34.594 0l-5.262 10.093c-.429.822-1.09 1.483-1.913 1.912l-10.092 5.263c-13.971 7.284-13.975 27.307 0 34.593zm6.935-21.292 10.092-5.263c3.561-1.855 6.424-4.719 8.279-8.278l5.262-10.092c1.687-3.236 6.304-3.237 7.992 0l5.262 10.091c1.855 3.561 4.719 6.424 8.278 8.279l10.094 5.263c3.235 1.686 3.236 6.305 0 7.991l-10.093 5.262c-3.561 1.855-6.424 4.719-8.279 8.279l-5.262 10.092c-1.687 3.234-6.304 3.238-7.992.001l-5.262-10.093c-1.855-3.561-4.719-6.424-8.279-8.279l-10.093-5.262c-2.187-1.14-2.423-3.174-2.423-3.995 0-.822.236-2.856 2.424-3.996zm376.843 83.966c.72-.505.096-.089 11.999-6.324 15.019-7.83 15.028-29.361.001-37.196l-11.326-5.904c-1.091-.569-1.968-1.446-2.536-2.536l-5.905-11.328c-7.831-15.019-29.363-15.027-37.197.001l-5.905 11.327c-.568 1.09-1.445 1.967-2.536 2.535l-11.325 5.905c-15.019 7.83-15.028 29.361-.001 37.196l11.326 5.904c1.091.569 1.968 1.446 2.536 2.536l5.831 11.186c-1.005 1.815-1.844 3.724-2.502 5.716-4.236 12.819-11.554 25.968-19.607 35.255-6.334-20.457-16.732-39.612-30.688-56.111-2.675-3.162-7.406-3.558-10.57-.883-3.162 2.676-3.558 7.407-.883 10.57 19.438 22.98 31.257 51.645 33.796 81.543-20.215-1.356-39.734 8.124-51.116 25.127-20.829-15.197-49.555-14.331-69.506 2.172-26.157-17.032-54.859-19.479-81.925-6.981-17.085-16.779-42.369-20.805-63.389-11.277-6.615-6.475-14.572-11.162-23.226-13.786 8.399-72.026 69.594-128.329 144.349-128.329 31.277 0 61.073 9.78 86.166 28.284 3.335 2.46 8.031 1.749 10.487-1.585 2.459-3.334 1.749-8.029-1.585-10.487-27.69-20.419-60.564-31.212-95.068-31.212-62.213 0-117.309 35.664-143.846 89.419-3.793-9.546-6.514-19.426-7.446-27.564-2.107-18.366-18.688-31.561-37.066-29.442-18.378 2.108-31.549 18.684-29.441 37.064 2.601 22.708 13.187 54.666 29.322 78.676-17.717 9.95-29.549 29.096-29.098 50.786 1.071 51.027 1.668 80.242 2.01 97.007.528 25.952.576 28.292 1.824 33.149 1.637 7.4 4.566 14.267 8.706 20.414 2.315 3.436 6.977 4.343 10.411 2.03 3.436-2.315 4.344-6.976 2.03-10.411-3.105-4.609-5.301-9.784-6.524-15.379-.021-.093-.043-.186-.066-.277-.819-3.163-.889-5.505-1.385-29.833-.342-16.765-.938-45.983-2.01-97.014-.479-23.051 17.882-42.211 40.931-42.711 12.809-.293 24.846 5.288 33.12 15.278 2.354 2.843 6.428 3.551 9.601 1.667 17.857-10.583 40.442-6.578 53.7 9.531 2.274 2.764 6.189 3.535 9.346 1.838 33.672-18.125 62.259-3.536 76.302 6.773 3.022 2.219 7.218 1.863 9.825-.827 16.269-16.794 43.172-17.234 59.855-.33l.334.339c3.7 3.754 10.056 2.62 12.2-2.23 10.566-23.884 40.197-32.541 61.918-17.667 9.237 6.325 15.452 15.864 17.501 26.859l21.017 112.81c2.357 13.338-1.113 26.738-9.521 36.764-15.542 18.534-43.735 20.915-62.575 3.586-3.771-3.472-9.823-2.208-11.915 2.44-10.977 24.366-41.197 32.142-62.46 17.027-3.55-2.521-8.505-1.501-10.764 2.232-8.126 13.441-22.879 21.388-39.09 20.129-1.17-6.259-5.123-11.7-10.908-14.716l-11.328-5.906c-1.09-.567-1.966-1.443-2.534-2.535l-5.905-11.326c-7.832-15.017-29.363-15.027-37.197 0l-5.906 11.328c-1.318 2.532-3.443 2.79-6.546 4.625-17.569 2.399-34.72-5.442-43.944-20.195-2.345-3.751-7.425-4.673-10.938-1.964-11.521 8.881-26.155 11.531-40.146 7.272-3.963-1.206-8.153 1.027-9.359 4.99s1.028 8.153 4.99 9.359c16.195 4.931 33.034 2.926 47.269-5.419 8.938 10.807 21.408 17.943 35.104 20.414-4.098 10.023.052 21.516 9.711 26.553l11.325 5.903c1.091.569 1.968 1.446 2.536 2.536l5.905 11.327c7.841 15.042 29.363 15.028 37.197 0l5.905-11.327c.568-1.09 1.445-1.967 2.535-2.535l11.327-5.904c3.456-1.802 6.259-4.469 8.207-7.657 19.73 2.071 38.524-6.393 50.291-21.001 25.547 13.491 57.626 5.607 73.857-18.825 5.918 3.94 12.513 6.817 19.444 8.45.396.094 7.858 1.829 13.081 1.43v.035c17.145-.002 33.3-7.543 44.324-20.689 11.266-13.432 15.931-31.297 12.787-49.082l-21.029-112.878c-1.498-8.041-4.65-15.499-9.185-22.021 20.857-16.641 38.759-43.562 48.71-73.672 5.178-15.676-1.922-32.502-16.021-40.021zm-379.484 82.242c-5.058-.132-10.022.392-14.971 1.593-15.561-21.914-26.241-52.876-28.747-74.748-1.162-10.14 6.098-19.288 16.253-20.454 10.159-1.158 19.29 6.126 20.449 16.248 1.524 13.308 7.124 30.521 14.474 44.754-3.598 10.509-6.108 21.428-7.458 32.607zm148.081 260.39-11.327 5.904c-3.828 1.997-6.906 5.075-8.901 8.902l-5.905 11.326c-2.235 4.288-8.358 4.292-10.596.001l-5.905-11.327c-1.995-3.827-5.073-6.905-8.902-8.902l-11.325-5.904c-4.289-2.235-4.292-8.358 0-10.596l11.324-5.904c3.829-1.996 6.908-5.075 8.903-8.902l5.905-11.327c2.236-4.287 8.359-4.291 10.596.001l5.904 11.324c1.996 3.829 5.075 6.908 8.902 8.903l11.327 5.905c4.287 2.236 4.291 8.358 0 10.596zm184.932-356.351-11.327-5.905c-4.288-2.237-4.29-8.358.001-10.595l11.326-5.906c3.828-1.996 6.906-5.074 8.901-8.901l5.905-11.326c2.236-4.288 8.358-4.291 10.596-.001l5.905 11.327c1.995 3.827 5.073 6.905 8.901 8.902l11.327 5.905c4.289 2.237 4.29 8.358-.001 10.595l-11.326 5.905c-3.828 1.997-6.906 5.075-8.901 8.902l-5.905 11.326c-2.236 4.288-8.358 4.291-10.596.001l-5.905-11.327c-1.995-3.827-5.073-6.905-8.901-8.902zm48.248 49.036c-9.059 27.412-25.865 52.593-44.624 67.27-5.229-4.372-11.096-7.726-17.384-9.993-.406-7.172-1.296-14.29-2.653-21.305 13.368-11.783 23.791-30.586 29.646-47.722 9.694 3.349 20.581-.742 25.471-10.123l.229-.439c8.088 4.022 12.23 13.489 9.315 22.312zm-157.11-29.876c-.003 0-.008 0-.011 0-12.154.006-22.037 9.899-22.031 22.054.002 4.141 3.359 7.496 7.5 7.496h.004c4.142-.002 7.498-3.361 7.496-7.504-.002-3.883 3.155-7.044 7.039-7.046h.003c1.881 0 3.648.731 4.978 2.059 1.33 1.33 2.064 3.098 2.065 4.98.002 4.141 3.359 7.496 7.5 7.496h.004c4.142-.002 7.498-3.361 7.496-7.504-.006-12.151-9.893-22.031-22.043-22.031zm-65.004 9.804c-12.155.007-37.448.02-37.436 27.768.012 22.608 16.812 40.994 37.454 40.994h.017c20.649-.011 37.439-18.418 37.429-41.032-.015-27.343-24.575-27.73-36.923-27.73-.184 0-.365 0-.541 0zm22.464 27.737c.007 14.343-10.059 26.018-22.436 26.024-.004 0-.005 0-.009 0-12.374 0-22.446-11.663-22.454-26.002-.005-9.721 3.09-12.749 22.443-12.76h.116c17.025.001 22.334 1.774 22.34 12.738zm-169.057 219.228 44.626-86.951c12.872 102.995 12.109 96.962 12.165 97.302 1.596 9.477 14.317 11.645 18.947 3.208.452-.821-2.413 6.32 43.44-111.491 1.501-3.86-.411-8.207-4.271-9.709-3.861-1.498-8.207.411-9.709 4.271l-35.957 92.436-12.745-102c-.912-7.293-10.752-9.047-14.115-2.495l-46.939 91.459-2.062-99.329c-.087-4.142-3.56-7.419-7.653-7.343-4.142.086-7.429 3.513-7.343 7.653 2.661 126.863 2.397 118.939 2.569 119.967 1.615 9.586 14.531 11.642 19.047 3.022zm81.59-256.703c-12.154.006-22.037 9.899-22.031 22.054.002 4.141 3.359 7.496 7.5 7.496h.004c4.142-.002 7.498-3.361 7.496-7.504-.002-3.883 3.155-7.044 7.04-7.046h.004c1.88 0 3.646.731 4.976 2.06 1.331 1.329 2.064 3.098 2.065 4.979.002 4.141 3.359 7.496 7.5 7.496h.004c4.142-.002 7.498-3.361 7.496-7.504-.003-5.888-2.298-11.422-6.464-15.583-4.162-4.159-9.693-6.448-15.576-6.448-.004 0-.009 0-.014 0zm82.533 286.241v-118.42c0-4.143-3.357-7.5-7.5-7.5s-7.5 3.357-7.5 7.5v118.42c0 4.143 3.357 7.5 7.5 7.5s7.5-3.358 7.5-7.5zm35.441-129.882 20.524 116.402c.723 4.099 4.634 6.802 8.689 6.083 4.079-.719 6.803-4.608 6.083-8.689l-16.347-92.708 81.898 82.969c3.082 3.115 7.337 3.956 10.841 2.143 3.636-1.881 5.455-6.098 4.623-10.814l-20.96-112.499c-.759-4.072-4.681-6.762-8.747-5.999-4.071.759-6.758 4.675-5.999 8.747l17.584 94.376-85.466-86.583c-5.166-5.232-13.994-.637-12.723 6.572z"/></g></svg>