<svg width="23" height="28" viewBox="0 0 23 28" fill="none" xmlns="http://www.w3.org/2000/svg">
<path d="M0.820068 11.403C0.820068 5.47274 5.64556 0.666016 11.5981 0.666016C17.5516 0.666016 22.377 5.47274 22.377 11.403C22.377 12.4643 22.2201 13.4887 21.9325 14.4593C20.3979 20.6416 11.5501 27.5568 11.5501 27.5568C11.5501 27.5568 1.55402 19.7492 0.966014 13.3063L0.992167 13.3013C0.880809 12.6862 0.820068 12.0517 0.820068 11.403ZM11.4513 13.7946C13.8869 13.7946 15.8609 11.8274 15.8609 9.40131C15.8609 6.97526 13.8869 5.00887 11.4513 5.00887C9.01666 5.00887 7.0426 6.97526 7.0426 9.40131C7.0426 11.8274 9.01666 13.7946 11.4513 13.7946Z" fill="black"/>
</svg>
